<?xml version="1.0" encoding="utf-8"?>
<!-- Generator: Adobe Illustrator 26.0.1, SVG Export Plug-In . SVG Version: 6.00 Build 0)  -->
<svg version="1.1" id="Layer_1" xmlns="http://www.w3.org/2000/svg" xmlns:xlink="http://www.w3.org/1999/xlink" x="0px" y="0px"
	 viewBox="0 0 38.3 38.2" style="enable-background:new 0 0 38.3 38.2;" xml:space="preserve">
<style type="text/css">
	.st0{clip-path:url(#SVGID_00000065787064936818582250000012592127150751380918_);fill:#B4B4B4;}
</style>
<g>
	<defs>
		<rect id="SVGID_1_" x="0.9" y="0.9" width="36.4" height="36.3"/>
	</defs>
	<clipPath id="SVGID_00000142137075935710150740000001331134600157962932_">
		<use xlink:href="#SVGID_1_"  style="overflow:visible;"/>
	</clipPath>
	<path style="clip-path:url(#SVGID_00000142137075935710150740000001331134600157962932_);fill:#B4B4B4;" d="M19.1,0.9
		C9.1,0.9,0.9,9.1,0.9,19.2C0.9,28,7.2,35.3,15.5,37c0-4,0-8.1,0-12.1c0-0.1,0-0.1-0.1-0.1c-1.5,0-2.9,0-4.4,0c-0.1,0-0.1,0-0.1-0.1
		c0-1.9,0-3.7,0-5.6c0-0.1,0-0.1,0.1-0.1c1.5,0,2.9,0,4.4,0c0.1,0,0.1,0,0.1-0.1c0-1,0-2.1,0-3.1c0-0.6,0-1.1,0.1-1.7
		c0.1-0.7,0.2-1.4,0.5-2.1c0.4-1.1,1-2.1,1.9-3c1.2-1.2,2.7-1.7,4.4-1.7c1.6,0,3.1,0,4.7,0c0.1,0,0.1,0,0.1,0.1c0,1.9,0,3.7,0,5.6
		c0,0.1,0,0.1-0.1,0.1c-0.8,0-1.6,0-2.4,0c-0.4,0-0.8,0.1-1.2,0.2c-0.8,0.2-1.4,0.7-1.7,1.4c-0.3,0.5-0.4,1.1-0.4,1.7
		c0,0.8,0,1.6,0,2.4c0,0,0,0.1,0,0.1h5.8c0,0.1,0,0.1,0,0.2c-0.2,1-0.4,1.9-0.6,2.9c-0.2,0.9-0.4,1.8-0.5,2.7c0,0.1-0.1,0.1-0.2,0.1
		c-1.5,0-2.9,0-4.4,0h-0.1v12.4c9-1.1,16-8.8,16-18.1C37.3,9.1,29.2,0.9,19.1,0.9"/>
</g>
</svg>
