<?xml version="1.0" encoding="utf-8"?>
<!-- Generator: Adobe Illustrator 26.0.1, SVG Export Plug-In . SVG Version: 6.00 Build 0)  -->
<svg version="1.1" id="Layer_1" xmlns="http://www.w3.org/2000/svg" xmlns:xlink="http://www.w3.org/1999/xlink" x="0px" y="0px"
	 viewBox="0 0 38.3 38.2" style="enable-background:new 0 0 38.3 38.2;" xml:space="preserve">
<style type="text/css">
	.st0{clip-path:url(#SVGID_00000076584746519756043140000011419695082640204445_);fill:#B4B4B4;}
</style>
<g>
	<g>
		<defs>
			<rect id="SVGID_1_" x="0.9" y="0.9" width="36.4" height="36.4"/>
		</defs>
		<clipPath id="SVGID_00000007419509495512314110000002400967604510718609_">
			<use xlink:href="#SVGID_1_"  style="overflow:visible;"/>
		</clipPath>
		<path style="clip-path:url(#SVGID_00000007419509495512314110000002400967604510718609_);fill:#B4B4B4;" d="M21.2,21.1
			c0.5-0.5,0.8-1.2,0.8-2l0,0c0-0.8-0.3-1.5-0.8-2s-1.2-0.8-2-0.8l0,0c-1.6,0-2.8,1.3-2.8,2.8c0,1.6,1.3,2.8,2.8,2.8l0,0
			C19.9,21.9,20.6,21.6,21.2,21.1 M25.4,19.1c0,1.7-0.6,3.2-1.8,4.4c-1.2,1.2-2.7,1.8-4.4,1.8s-3.2-0.7-4.4-1.8
			c-1.2-1.2-1.8-2.8-1.8-4.4c0-1.7,0.7-3.2,1.9-4.4c1.2-1.2,2.7-1.8,4.4-1.8C22.6,12.9,25.4,15.7,25.4,19.1 M27.1,23.7L27.1,23.7
			c0-3.1,0-6.2,0-9.3c0-0.4-0.1-0.8-0.2-1.1c-0.5-1.4-1.6-2.2-3.2-2.2c-1.5,0-3,0-4.5,0c-1.6,0-3.2,0-4.8,0c-0.4,0-0.8,0.1-1.1,0.2
			c-1.4,0.5-2.2,1.6-2.2,3.1c0,3.1,0,6.2,0,9.3c0,1.2,0.4,2,1.4,2.7c0.5,0.4,1.2,0.6,2,0.6l0,0h9.2c0.5,0,0.9-0.1,1.2-0.2
			C26.3,26.4,27.1,25.2,27.1,23.7 M30.5,24.3v0.2c0,0.2-0.1,0.3-0.1,0.5c-0.6,2.7-2.3,4.4-4.9,5.2c-0.2,0.1-0.5,0.1-0.7,0.1h-0.3H14
			h-0.2c-1-0.1-1.9-0.4-2.6-0.8c-2.2-1.3-3.4-3.3-3.4-5.9c0-3.1,0-6.2,0-9.3c0-0.3,0-0.8,0.1-1.3c0.6-2.7,2.2-4.5,4.9-5.2
			c0.2-0.1,0.5-0.1,0.7-0.1h0.3h10.5h0.3c0.2,0,0.4,0.1,0.5,0.1c2.7,0.6,4.4,2.3,5.2,4.9c0.1,0.2,0.1,0.5,0.1,0.7v0.3L30.5,24.3z
			 M37.4,19.1C37.4,9,29.2,0.9,19.2,0.9C9.1,0.9,1,9.1,1,19.1s8.2,18.2,18.2,18.2C29.2,37.3,37.4,29.1,37.4,19.1"/>
	</g>
</g>
</svg>
