<?xml version="1.0" encoding="utf-8"?>
<!-- Generator: Adobe Illustrator 26.0.1, SVG Export Plug-In . SVG Version: 6.00 Build 0)  -->
<svg version="1.1" id="Layer_1" xmlns="http://www.w3.org/2000/svg" xmlns:xlink="http://www.w3.org/1999/xlink" x="0px" y="0px"
	 viewBox="0 0 202 202" style="enable-background:new 0 0 202 202;" xml:space="preserve">
<style type="text/css">
	.st0{clip-path:url(#SVGID_00000006673489591499366650000017899288157517937843_);fill:none;stroke:#FFFFFF;stroke-width:2;}
	.st1{fill:none;stroke:#FFFFFF;stroke-width:2;}
</style>
<g>
	<defs>
		<rect id="SVGID_1_" x="5" y="5" width="192" height="192"/>
	</defs>
	<clipPath id="SVGID_00000149349524779707871540000003221142293669444003_">
		<use xlink:href="#SVGID_1_"  style="overflow:visible;"/>
	</clipPath>
	
		<circle style="clip-path:url(#SVGID_00000149349524779707871540000003221142293669444003_);fill:none;stroke:#FFFFFF;stroke-width:2;" cx="101" cy="101" r="95"/>
</g>
<path class="st1" d="M87.9,143.3H60.4c-0.1,0-0.1-0.1-0.1-0.1V58.8c0-0.1,0.1-0.1,0.1-0.1h27.4c0.1,0,0.1,0.1,0.1,0.1v84.4
	C88,143.2,87.9,143.3,87.9,143.3z"/>
<path class="st1" d="M141.6,143.3h-27.4c-0.1,0-0.1-0.1-0.1-0.1V58.8c0-0.1,0.1-0.1,0.1-0.1h27.4c0.1,0,0.1,0.1,0.1,0.1v84.4
	C141.7,143.2,141.6,143.3,141.6,143.3z"/>
</svg>
