<?xml version="1.0" encoding="utf-8"?>
<!-- Generator: Adobe Illustrator 26.0.1, SVG Export Plug-In . SVG Version: 6.00 Build 0)  -->
<svg version="1.1" id="Layer_1" xmlns="http://www.w3.org/2000/svg" xmlns:xlink="http://www.w3.org/1999/xlink" x="0px" y="0px"
	 viewBox="0 0 38.3 38.2" style="enable-background:new 0 0 38.3 38.2;" xml:space="preserve">
<style type="text/css">
	.st0{clip-path:url(#SVGID_00000104701698637797757080000013317941539371833998_);fill:#B4B4B4;}
</style>
<g>
	<defs>
		<rect id="SVGID_1_" x="1" y="0.9" width="36.3" height="36.3"/>
	</defs>
	<clipPath id="SVGID_00000125585569210114487110000003249928434884539553_">
		<use xlink:href="#SVGID_1_"  style="overflow:visible;"/>
	</clipPath>
	<path style="clip-path:url(#SVGID_00000125585569210114487110000003249928434884539553_);fill:#B4B4B4;" d="M16.4,16.7
		c-0.1,0-0.2,0-0.2,0c-0.4,0-0.9,0-1.3,0.1c-3.9,0.6-6.4,4.3-5.7,8.1c0.8,4.1,5.1,6.6,9,5.2c2.8-1,4.7-3.6,4.7-6.5c0-3,0-6.1,0-9.1
		v-0.2c1.4,1.9,3.3,2.8,5.6,2.7v-3.8c-0.2,0-0.3,0-0.5-0.1c-2.7-0.4-4.8-2.6-5.1-5.2c0-0.1,0-0.1-0.1-0.1c-1,0-2,0-3,0
		c0,0-0.1,0-0.1,0c0,0.1,0,0.2,0,0.2c0,5.2,0,10.4,0,15.6c0,0.3,0,0.5-0.1,0.8c-0.4,1.8-2.4,3-4.2,2.7c-1.7-0.3-2.9-1.9-2.8-3.7
		c0.1-1.7,1.5-3.1,3.2-3.3c0.2,0,0.5,0,0.8,0V16.7z M19.1,0.9c10,0,18.1,8.1,18.1,18.2c0,10-8.1,18.1-18.1,18.1
		C9.1,37.2,1,29.1,1,19.1C1,9.1,9.1,0.9,19.1,0.9"/>
</g>
</svg>
