<?xml version="1.0" encoding="utf-8"?>
<!-- Generator: Adobe Illustrator 26.0.1, SVG Export Plug-In . SVG Version: 6.00 Build 0)  -->
<svg version="1.1" id="Layer_1" xmlns="http://www.w3.org/2000/svg" xmlns:xlink="http://www.w3.org/1999/xlink" x="0px" y="0px"
	 viewBox="0 0 703 670" style="enable-background:new 0 0 703 670;" xml:space="preserve">
<style type="text/css">
	.st0{clip-path:url(#SVGID_00000129172767856838290040000004475927269241820066_);}
</style>
<g>
	<defs>
		<path id="SVGID_1_" d="M427.1,14.6c-89.5,0.1-181.3,43.2-257.3,87.3c-4.9,2.9-9.8,5.8-14.6,8.8C74,162.2,13.8,237,13.7,333.4v0.1
			c0,9.7,0.6,19.7,1.9,29.9c22.4,180,329.9,273.4,329.9,273.4C648.4,723.4,682.1,490,682.1,490c3.8-26.1,6.2-52.4,7.2-78.8
			c0.4-10.4,0.7-21.1,0.7-31.9v-0.9c-0.1-116.5-26.2-254.2-127.1-323c-42.7-29.1-88.5-40.8-135-40.9H427.1z"/>
	</defs>
	<clipPath id="SVGID_00000088122728560896569080000017991327041541932686_">
		<use xlink:href="#SVGID_1_"  style="overflow:visible;"/>
	</clipPath>
	<g style="clip-path:url(#SVGID_00000088122728560896569080000017991327041541932686_);">
		<defs>
			<rect id="SVGID_00000165207844805142753250000014421437613480421764_" x="12.8" y="13.6" width="678.2" height="643.4"/>
		</defs>
		<clipPath id="SVGID_00000141428563600283029660000017264393589527232932_">
			<use xlink:href="#SVGID_00000165207844805142753250000014421437613480421764_"  style="overflow:visible;"/>
		</clipPath>
		<g style="clip-path:url(#SVGID_00000141428563600283029660000017264393589527232932_);">
			
				<image style="overflow:visible;" width="3322" height="3182" xlink:href="B5FBE521.png"  transform="matrix(0.2042 0 0 0.2022 12.7739 13.5809)">
			</image>
		</g>
	</g>
</g>
</svg>
