<?xml version="1.0" encoding="utf-8"?>
<!-- Generator: Adobe Illustrator 26.0.1, SVG Export Plug-In . SVG Version: 6.00 Build 0)  -->
<svg version="1.1" id="Layer_1" xmlns="http://www.w3.org/2000/svg" xmlns:xlink="http://www.w3.org/1999/xlink" x="0px" y="0px"
	 viewBox="0 0 205 151" style="enable-background:new 0 0 205 151;" xml:space="preserve">
<style type="text/css">
	.st0{clip-path:url(#SVGID_00000085957567697272183980000015833678755537698434_);fill:#FFFFFF;}
</style>
<g>
	<g>
		<defs>
			<rect id="SVGID_1_" x="6.3" y="7.6" width="192.8" height="138.1"/>
		</defs>
		<clipPath id="SVGID_00000009575403149729225660000007390534003299058107_">
			<use xlink:href="#SVGID_1_"  style="overflow:visible;"/>
		</clipPath>
		<path style="clip-path:url(#SVGID_00000009575403149729225660000007390534003299058107_);fill:#FFFFFF;" d="M184.6,40.6
			c0-2,1.3-3.7,3.2-4.2c1.2-0.3,2.4,0.6,2.4,1.8v18.2c0,1.5-1,2.9-2.5,3.3l-3.1,0.9V40.6z M177.5,35.7l-0.9,0.2v41.4l5.4-1.2
			c3-1.2,2.7-4.9,2.7-4.9V65l7.8-2.2c3.8-1.1,6.4-4.5,6.4-8.4V37.7c0-4.1-3.9-7-7.8-5.9L177.5,35.7L177.5,35.7z M150.8,44.2
			c-0.3,0.1-0.6,0.2-1,0.3l0.1,21.7c0,4.7,4.5,8.1,9,6.8l7.5-2.1c3.1-0.9,5.3-3.7,5.3-7V50.4v-4c0-0.6-0.1-1.2-0.3-1.8
			c-0.2-0.5-0.4-1.1-0.7-1.5c-0.3-0.5-0.7-0.9-1.1-1.3s-0.9-0.7-1.4-0.9c-0.5-0.2-1-0.4-1.6-0.5s-1.2-0.1-1.8-0.1
			c-0.5,0.1-1,0.2-1.4,0.3v24c0,1.5-1,2.9-2.5,3.3l-3.1,0.9V42.2l-2.3,0.6c-0.1,0-0.2,0.1-0.3,0.1C154,43.3,150.8,44.2,150.8,44.2
			 M19.9,70.9c0,1.5-1,2.9-2.5,3.3l-3.1,0.9V55.2c0-2,1.3-3.7,3.2-4.2c1.2-0.3,2.4,0.6,2.4,1.8L19.9,70.9L19.9,70.9z M28.6,68.9
			V52.2c0-4.1-3.9-7-7.8-5.9L7.2,50.1l-0.9,0.2v3.4c0,0.3,0,0.4,0,0.4v59c0,0,0,0.2,0,0.6v3.6c2.4-0.6,5.6-1.3,5.6-1.3
			c1.7-0.7,2.5-2.3,2.6-4.1c0.1-1.2,0-2.3,0-3.5v-1.7v-4.3v-5v-5.2v-4.9v-4.1v-2.8c0-0.1,0-1,0-1l7.8-2.2
			C26,76.2,28.6,72.8,28.6,68.9 M42.5,101.7V88.2v-4c0-0.6-0.1-1.2-0.3-1.8c-0.2-0.5-0.4-1.1-0.7-1.5c-0.3-0.5-0.7-0.9-1.1-1.3
			c-0.4-0.4-0.9-0.7-1.4-0.9c-0.5-0.2-1-0.4-1.6-0.5s-1.2-0.1-1.8-0.1c-0.5,0.1-1,0.2-1.4,0.3v24c0,1.5-1,2.9-2.5,3.3l-3.1,0.9V80
			l-2.3,0.6c-0.1,0-0.2,0.1-0.3,0.1c-1.2,0.4-4.4,1.3-4.4,1.3c-0.3,0.1-0.6,0.2-1,0.3l0.1,21.7c0,4.7,4.5,8.1,9,6.8l7.5-2.1
			C40.3,107.8,42.5,104.9,42.5,101.7 M83.5,88.7c0-3.5,0-7.1,0-9.4v-5.7c0-4.7-4.5-8.1-9-6.8l-1.7,0.5l-11.3,3.1
			c-0.2,0-0.5,0.1-0.7,0.2l-7,2l0,0l-0.5,0.2c-2.9,0.8-4.9,3.3-5.2,6.2v26l8.2-2.2v-3.2c0-0.4,0-0.6,0-0.6v-6.2l0,0V79
			c0-1.5,1-2.9,2.5-3.3l3.1-0.9l0,0v19.6v6.9l5.7-1.5c1.4-0.4,2.4-1.7,2.4-3.2V78v-2.7c0-1.5,1-2.9,2.5-3.3l3.1-0.9v26.5l1.7-0.5
			C81,96,83.5,92.6,83.5,88.7 M102.3,82.6c0,1.5-1,2.9-2.5,3.3l-3.1,0.9V66.9c0-2,1.3-3.7,3.2-4.2c1.2-0.3,2.4,0.6,2.4,1.8V82.6z
			 M111,80.7V64c0-4.1-3.9-7-7.8-5.9l-13.6,3.8l0,0l-0.9,0.2v41.4l5.4-1.2c3-1.2,2.7-4.9,2.7-4.9v-6.2l7.8-2.2
			C108.4,88,111,84.6,111,80.7 M111.2,111.4v-6.2L6.4,135.7v10.1l102.1-29.5C111.5,115.1,111.2,111.4,111.2,111.4 M129.9,73.3
			c-2.4,1.8-4.7,1.1-4.7,1.1c-0.3-0.1-0.5-0.2-0.8-0.3c-0.3-0.2-0.6-0.4-0.9-0.6c-3.2-2.5-4.3-8.5-1.3-11.5c0.2-0.2,0.4-0.4,0.6-0.6
			c0,0,1.7,3.2,4,7C127.7,69.9,128.7,71.5,129.9,73.3 M145,82.2c-1.4-2-4-6-4.3-6.5c0.7-1.4,1.3-3.1,1.8-5l0,0
			c0.7-2.1,1.2-4.3,1.6-6.5c0.4-2.4,1.1-5.4-0.6-7.6c-1.3-1.7-3.4-2.4-5.4-1.6c-1.3,0.5-2.1,1.7-2.6,3c-0.4,1.2-0.4,2.4-0.6,3.6
			c-0.3,1.8-0.6,3.4-1,4.7c-2.2-3.1-4.5-6.1-6.6-9.3c-2-3.1-5.3-7.2-5-11.1c0.2-3.2,3.3-4.8,6.2-4.7c0.3,0,0.7,0,1,0.1
			c1.4,0.3,2.5-0.3,3.4-1.3c1.4-1.6,2.1-3.4,1.9-5.5c-0.2-1.8-1-2.6-2.8-2.6c-5.9,0-10.5,3.6-12.7,8.4l0,0v0.1
			c-3.8,8.1,0.9,15.9,0.9,15.9c-0.3,0.2-0.6,0.5-0.8,0.7c-2.4,2.5-2.9,6.6-2.9,9.9c0.2,6.6,3.7,13.3,10.1,15.8c0,0,1.3,0.7,3.2,0.8
			l0,0c0,0,1.2,0.2,3-0.3c0.3-0.1,1.1-0.2,2.1-0.8l4.2,6.6c0.7,1,2,1.5,3.2,1.1C145.8,89.2,147.1,85.1,145,82.2 M199.1,17.8V7.6
			l-50.3,15.6v6.1c0,2,1.9,3.4,3.8,2.9L199.1,17.8z"/>
	</g>
</g>
</svg>
